<svg width="32" height="29" viewBox="0 0 32 29" fill="none" xmlns="http://www.w3.org/2000/svg">
<path d="M0.902738 0.0488226C0.722451 0.0430537 0.546613 0.106645 0.410007 0.227053C0.273401 0.34746 0.185977 0.515911 0.16503 0.699051C0.144083 0.882191 0.191138 1.06671 0.296887 1.21608C0.402637 1.36546 0.559377 1.46879 0.736102 1.50569L3.42829 2.11016L4.12014 5.47608C4.12063 5.4784 4.12113 5.48072 4.12164 5.48304L7.5528 21.3666C7.58819 21.5303 7.67717 21.6767 7.80502 21.7817C7.93287 21.8866 8.09193 21.9438 8.2559 21.9438H27.6883C27.7837 21.9452 27.8785 21.9273 27.9671 21.891C28.0557 21.8546 28.1363 21.8006 28.2043 21.7321C28.2723 21.6636 28.3263 21.582 28.3632 21.492C28.4 21.402 28.419 21.3054 28.419 21.2078C28.419 21.1102 28.4 21.0136 28.3632 20.9236C28.3263 20.8336 28.2723 20.752 28.2043 20.6835C28.1363 20.615 28.0557 20.561 27.9671 20.5247C27.8785 20.4883 27.7837 20.4704 27.6883 20.4718H8.8345L8.17217 17.4049H28.6691C28.833 17.4049 28.9921 17.3478 29.1199 17.2428C29.2478 17.1379 29.3368 16.9915 29.3722 16.8278L31.8232 5.48236C31.8465 5.37481 31.8458 5.26329 31.8213 5.15604C31.7967 5.04878 31.749 4.94853 31.6815 4.86265C31.614 4.77677 31.5286 4.70746 31.4314 4.65984C31.3342 4.61223 31.2279 4.58752 31.1201 4.58752C22.5494 4.58774 13.9788 4.58753 5.40827 4.58336L4.74172 1.34109C4.71322 1.20229 4.6461 1.07483 4.54844 0.9741C4.45077 0.873371 4.32672 0.803654 4.1912 0.773289L1.0455 0.0674563C0.99868 0.0561065 0.950864 0.0495727 0.90277 0.0479736L0.902738 0.0488226ZM5.71971 6.0561C13.8877 6.06027 22.0558 6.0603 30.2236 6.0603L28.0904 15.9337H7.85363L5.71971 6.0561ZM12.8626 23.498C11.4537 23.498 10.2983 24.684 10.2983 26.125C10.2983 27.5659 11.4537 28.752 12.8626 28.752C14.2714 28.752 15.4268 27.5659 15.4268 26.125C15.4268 24.684 14.2714 23.498 12.8626 23.498ZM23.1898 23.498C21.7809 23.498 20.6255 24.684 20.6255 26.125C20.6255 27.5659 21.7809 28.752 23.1898 28.752C24.5986 28.752 25.754 27.5659 25.754 26.125C25.754 24.684 24.5986 23.498 23.1898 23.498ZM12.8626 24.97C13.4907 24.97 13.9868 25.477 13.9868 26.125C13.9868 26.7729 13.4907 27.28 12.8626 27.28C12.2344 27.28 11.7383 26.7729 11.7383 26.125C11.7383 25.477 12.2344 24.97 12.8626 24.97ZM23.1898 24.97C23.8179 24.97 24.314 25.477 24.314 26.125C24.314 26.7729 23.8179 27.28 23.1898 27.28C22.5616 27.28 22.0655 26.7729 22.0655 26.125C22.0655 25.477 22.5616 24.97 23.1898 24.97Z" fill="#007BFF"/>
</svg>
