<svg width="56" height="50" viewBox="0 0 56 50" fill="none" xmlns="http://www.w3.org/2000/svg">
<rect x="0.75" y="0.75" width="54.5" height="48.5" rx="4.25" stroke="#007BFF" stroke-width="1.5"/>
<path d="M10.7561 13.0003C10.5725 12.995 10.3935 13.0542 10.2544 13.1663C10.1153 13.2784 10.0263 13.4352 10.005 13.6057C9.98364 13.7763 10.0315 13.9481 10.1392 14.0871C10.2469 14.2262 10.4065 14.3224 10.5864 14.3568L13.3274 14.9196L14.0319 18.0535C14.0323 18.0557 14.0329 18.0578 14.0334 18.06L17.5268 32.8487C17.5628 33.0011 17.6534 33.1374 17.7836 33.2352C17.9138 33.3329 18.0757 33.3861 18.2427 33.3861L37.0524 33.3224C37.1496 33.3237 37.2461 33.307 37.3363 33.2732C37.4265 33.2393 37.5086 33.189 37.5778 33.1253C37.6471 33.0615 37.702 32.9855 37.7396 32.9017C37.7771 32.8179 37.7964 32.7279 37.7964 32.6371C37.7964 32.5462 37.7771 32.4563 37.7396 32.3725C37.702 32.2887 37.6471 32.2127 37.5778 32.1489C37.5086 32.0852 37.4265 32.0349 37.3363 32.001C37.2461 31.9672 37.1496 31.9505 37.0524 31.9518L18.8318 32.0156L18.1574 29.1601H39.0263C39.1932 29.1601 39.3552 29.1069 39.4853 29.0092C39.6155 28.9115 39.7061 28.7751 39.7421 28.6228L42.2376 18.0593C42.2613 17.9592 42.2606 17.8554 42.2357 17.7555C42.2107 17.6557 42.1621 17.5623 42.0934 17.4824C42.0247 17.4024 41.9376 17.3379 41.8387 17.2935C41.7398 17.2492 41.6315 17.2262 41.5218 17.2262C32.7956 17.2264 24.0694 17.2262 15.3433 17.2223L14.6647 14.2035C14.6357 14.0743 14.5674 13.9556 14.4679 13.8618C14.3685 13.768 14.2422 13.7031 14.1042 13.6749L10.9014 13.0177C10.8537 13.0071 10.805 13.0018 10.7561 13.0003ZM15.6604 18.5935C23.9767 18.5974 32.2929 18.5975 40.609 18.5975L38.4371 27.7903H17.8331L15.6604 18.5935Z" fill="#007BFF"/>
<circle r="0.921569" transform="matrix(1 0 0 -1 19.2165 35.5784)" fill="#007BFF"/>
<circle r="0.921569" transform="matrix(1 0 0 -1 35.8044 35.5784)" fill="#007BFF"/>
</svg>
