<svg width="30" height="30" viewBox="0 0 30 30" fill="none" xmlns="http://www.w3.org/2000/svg">
<rect width="30" height="30" fill="white"/>
<path d="M1.60485 5.40026C1.458 5.39597 1.31478 5.44333 1.20351 5.53302C1.09224 5.6227 1.02103 5.74818 1.00397 5.88459C0.986908 6.021 1.02524 6.15844 1.11137 6.26971C1.1975 6.38097 1.32517 6.45794 1.46912 6.48542L3.66195 6.93567L4.22548 9.44279C4.22588 9.44452 4.22628 9.44625 4.2267 9.44798L7.02143 21.279C7.05027 21.4009 7.12274 21.5099 7.22688 21.5881C7.33101 21.6663 7.46057 21.7089 7.59412 21.7089L22.6419 21.6579C22.7197 21.659 22.7969 21.6456 22.869 21.6185C22.9412 21.5915 23.0069 21.5512 23.0623 21.5002C23.1176 21.4492 23.1616 21.3884 23.1916 21.3214C23.2217 21.2543 23.2371 21.1823 23.2371 21.1097C23.2371 21.037 23.2217 20.965 23.1916 20.898C23.1616 20.8309 23.1176 20.7701 23.0623 20.7191C23.0069 20.6681 22.9412 20.6279 22.869 20.6008C22.7969 20.5738 22.7197 20.5604 22.6419 20.5615L8.0654 20.6125L7.52593 18.3281H24.221C24.3546 18.3281 24.4841 18.2855 24.5883 18.2073C24.6924 18.1292 24.7649 18.0201 24.7937 17.8982L26.7901 9.44747C26.809 9.36736 26.8085 9.2843 26.7885 9.20441C26.7685 9.12452 26.7296 9.04984 26.6747 8.98588C26.6197 8.92191 26.5501 8.87028 26.471 8.83482C26.3918 8.79935 26.3052 8.78094 26.2174 8.78094C19.2365 8.78111 12.2555 8.78095 5.27468 8.77784L4.73177 6.36281C4.70855 6.25943 4.65388 6.16449 4.57433 6.08946C4.49478 6.01443 4.39374 5.9625 4.28335 5.93989L1.72113 5.41414C1.68299 5.40569 1.64402 5.40145 1.60485 5.40026ZM5.52835 9.87483C12.1813 9.87793 18.8343 9.87796 25.4872 9.87796L23.7497 17.2322H7.26647L5.52835 9.87483Z" fill="#007BFF" stroke="#007BFF" stroke-width="0.8"/>
<circle r="1.136" transform="matrix(1 0 0 -1 8.77174 24.664)" fill="#007BFF"/>
<circle r="1.136" transform="matrix(1 0 0 -1 22.0422 24.664)" fill="#007BFF"/>
</svg>
