<svg width="640" height="640" viewBox="0 0 640 640" fill="none" xmlns="http://www.w3.org/2000/svg">
<path d="M604.672 7.23939e-07H35.2969C15.8008 0.0117195 -0.00390553 15.8242 7.23939e-07 35.3281V604.703C0.0117195 624.199 15.8242 640.004 35.3281 640H341.875V392.5H258.75V295.625H341.875V224.332C341.875 141.656 392.348 96.6562 466.098 96.6562C501.422 96.6562 531.777 99.2891 540.625 100.465V186.875H489.77C449.645 186.875 441.875 205.941 441.875 233.926V295.625H537.812L525.312 392.5H441.875V640H604.672C624.18 640.004 639.996 624.195 640 604.688C640 604.684 640 604.68 640 604.672V35.2969C639.992 15.8008 624.176 -0.00390553 604.672 7.23939e-07Z" fill="#007BFF"/>
</svg>
