<svg width="76" height="64" viewBox="0 0 76 64" fill="none" xmlns="http://www.w3.org/2000/svg">
<path d="M6.55756 6.52232C13.3118 -0.174096 24.1855 -0.174114 30.9399 6.52231C30.9399 6.52232 30.9399 6.52232 30.9399 6.52233L36.9613 12.4923L38.0174 13.5394L39.0735 12.4924L45.0575 6.55962L44.0014 5.49441L45.0575 6.55961C51.8117 -0.136908 62.6855 -0.136818 69.4397 6.55961C76.1867 13.249 76.1867 24.0076 69.4397 30.697C58.9535 41.0936 48.4673 51.4901 37.9809 61.8866L6.5588 30.661L6.55861 30.6608C-0.18356 23.9632 -0.188512 13.2108 6.55756 6.52232ZM6.55756 6.52232L5.50148 5.45711L6.55756 6.52232Z" fill="#2A88F8" stroke="#2A88F8" stroke-width="3"/>
</svg>
