<svg width="511" height="511" viewBox="0 0 511 511" fill="none" xmlns="http://www.w3.org/2000/svg">
<g clip-path="url(#clip0)">
<path d="M510.501 150.235C509.304 123.084 504.913 104.418 498.623 88.243C492.135 71.074 482.152 55.7027 469.074 42.9244C456.296 29.9473 440.823 19.8635 423.853 13.4763C407.585 7.18656 389.016 2.79586 361.864 1.59875C334.51 0.300252 325.826 0 256.448 0C187.071 0 178.387 0.300252 151.134 1.49736C123.982 2.69447 105.316 7.08908 89.1454 13.3749C71.9725 19.8635 56.6011 29.8459 43.8228 42.9244C30.8457 55.7027 20.7658 71.1754 14.3747 88.1455C8.085 104.418 3.69429 122.983 2.49718 150.134C1.19869 177.488 0.898438 186.172 0.898438 255.55C0.898438 324.928 1.19869 333.612 2.3958 360.864C3.59291 388.016 7.98751 406.682 14.2772 422.857C20.7658 440.026 30.8457 455.397 43.8228 468.175C56.6011 481.153 72.0739 491.236 89.044 497.624C105.316 503.913 123.881 508.304 151.036 509.501C178.285 510.702 186.973 510.998 256.351 510.998C325.729 510.998 334.413 510.702 361.665 509.501C388.817 508.304 407.483 503.913 423.654 497.624C457.996 484.346 485.147 457.195 498.425 422.857C504.71 406.585 509.105 388.016 510.302 360.864C511.499 333.612 511.799 324.928 511.799 255.55C511.799 186.172 511.698 177.488 510.501 150.235ZM464.484 358.868C463.385 383.824 459.193 397.3 455.699 406.284C447.113 428.546 429.444 446.214 407.183 454.801C398.199 458.294 384.625 462.486 359.766 463.582C332.814 464.783 324.73 465.079 256.55 465.079C188.369 465.079 180.184 464.783 153.329 463.582C128.373 462.486 114.897 458.294 105.913 454.801C94.8346 450.706 84.7508 444.218 76.5659 435.733C68.0809 427.446 61.5923 417.464 57.498 406.386C54.0041 397.402 49.8123 383.824 48.7166 358.969C47.5156 332.017 47.2192 323.929 47.2192 255.749C47.2192 187.568 47.5156 179.383 48.7166 152.532C49.8123 127.576 54.0041 114.1 57.498 105.116C61.5923 94.0336 68.0809 83.9537 76.6673 75.765C84.9496 67.2799 94.932 60.7914 106.014 56.7009C114.998 53.2071 128.576 49.0152 153.431 47.9156C180.383 46.7185 188.47 46.4182 256.647 46.4182C324.929 46.4182 333.013 46.7185 359.868 47.9156C384.824 49.0152 398.3 53.2071 407.284 56.7009C418.362 60.7914 428.446 67.2799 436.631 75.765C445.116 84.0512 451.605 94.0336 455.699 105.116C459.193 114.1 463.385 127.674 464.484 152.532C465.681 179.485 465.982 187.568 465.982 255.749C465.982 323.929 465.681 331.915 464.484 358.868Z" fill="#007BFF"/>
<path d="M256.448 124.281C183.978 124.281 125.18 183.076 125.18 255.55C125.18 328.024 183.978 386.819 256.448 386.819C328.922 386.819 387.717 328.024 387.717 255.55C387.717 183.076 328.922 124.281 256.448 124.281ZM256.448 340.701C209.434 340.701 171.298 302.569 171.298 255.55C171.298 208.531 209.434 170.399 256.448 170.399C303.467 170.399 341.599 208.531 341.599 255.55C341.599 302.569 303.467 340.701 256.448 340.701V340.701Z" fill="#007BFF"/>
<path d="M423.556 119.091C423.556 136.014 409.834 149.736 392.907 149.736C375.984 149.736 362.262 136.014 362.262 119.091C362.262 102.164 375.984 88.4458 392.907 88.4458C409.834 88.4458 423.556 102.164 423.556 119.091V119.091Z" fill="#007BFF"/>
</g>
<defs>
<clipPath id="clip0">
<rect width="511" height="511" fill="white"/>
</clipPath>
</defs>
</svg>
