<svg width="38" height="38" viewBox="0 0 38 38" fill="none" xmlns="http://www.w3.org/2000/svg">
<g clip-path="url(#clip0)">
<path d="M19 36.4166C18.3318 36.4166 17.6969 36.1364 17.2567 35.6487C16.6567 35.2101 0 22.4374 0 11.875C0 6.20033 4.617 1.58333 10.2917 1.58333C13.8684 1.58333 17.1412 3.42633 19 6.38241C20.8588 3.42633 24.1316 1.58333 27.7083 1.58333C33.383 1.58333 38 6.20033 38 11.875C38 22.4374 21.3433 35.2101 20.634 35.7485C20.3031 36.1364 19.6682 36.4166 19 36.4166ZM10.2917 3.16666C5.48942 3.16666 1.58333 7.07274 1.58333 11.875C1.58333 21.66 18.1561 34.3615 18.3223 34.4881C18.8258 35.0027 19.2818 34.903 19.5684 34.5879C19.8439 34.3615 36.4167 21.6552 36.4167 11.875C36.4167 7.07274 32.5106 3.16666 27.7083 3.16666C24.2361 3.16666 21.1027 5.21708 19.7252 8.39008C19.475 8.96799 18.5234 8.96799 18.2732 8.39008C16.8973 5.21708 13.7639 3.16666 10.2917 3.16666V3.16666Z" fill="#007BFF"/>
</g>
<defs>
<clipPath id="clip0">
<rect width="38" height="38" fill="white"/>
</clipPath>
</defs>
</svg>
