<svg fill="none" height="39" viewBox="0 0 352 39" width="352" xmlns="http://www.w3.org/2000/svg"><path d="m38.1094 4.01367h-16.2227v29.47123h16.2227z" fill="#ff5f00"/><path d="m22.9178 18.7543c0-5.988 2.781-11.29912 7.0556-14.73562-3.1415-2.4994-7.1071-4.00940266-11.4331-4.00940266-10.2487 0-18.5403 8.38320266-18.5403 18.74502266 0 10.3618 8.2916 18.7449 18.5403 18.7449 4.326 0 8.2916-1.51 11.4331-4.0093-4.2746-3.3845-7.0556-8.7477-7.0556-14.7356z" fill="#ec001b"/><path d="m59.9968 18.7449c0 10.3618-8.2916 18.745-18.5402 18.745-4.3261 0-8.2916-1.51-11.4332-4.0093 4.3261-3.4366 7.0556-8.7477 7.0556-14.7357 0-5.9879-2.781-11.299-7.0556-14.7356 3.1416-2.4993 7.1071-4.0093 11.4332-4.0093 10.2486 0 18.5402 8.4352 18.5402 18.7449z" fill="#f89e1b"/><path clip-rule="evenodd" d="m172.113 8c2.256 0 4.081.5042 5.231.9608l-.793 4.8735-.528-.2397c-1.055-.4563-2.448-.9123-4.344-.8641-2.303 0-3.336.9838-3.36 1.9443 0 1.0566 1.25 1.7529 3.29 2.7855 3.36 1.6087 4.919 3.5772 4.895 6.1464-.047 4.682-4.031 7.7075-10.151 7.7075-2.617-.0243-5.137-.5776-6.505-1.2012l.816-5.0662.768.3606c1.896.8412 3.144 1.2005 5.473 1.2005 1.679 0 3.48-.6969 3.502-2.2089 0-.9844-.767-1.7053-3.023-2.8097-2.208-1.0808-5.16-2.8813-5.112-6.1228.025-4.3935 4.081-7.4665 9.841-7.4665zm-21.744 22.9775h5.832l3.648-22.5687h-5.832zm34.727-7.9953c.48-1.2965 2.329-6.3145 2.329-6.3145-.01.0194.066-.1922.179-.5067l.001-.0004c.167-.4643.415-1.1528.587-1.6536l.408 1.9446s1.104 5.4023 1.344 6.5306zm7.2-14.5734h-4.512c-1.391 0-2.448.4078-3.048 1.8725l-8.664 20.6959h6.12s1.008-2.7855 1.224-3.3854h7.489c.167.7923.696 3.3854.696 3.3854h5.4zm-46.801 0-5.712 15.3897-.624-3.1204.001.0027-2.04-10.3723c-.336-1.4414-1.368-1.8496-2.64-1.8971h-9.384l-.096.456c2.289.5855 4.335 1.4292 6.129 2.4782l5.198 19.608h6.167l9.168-22.5448z" fill="#1a1f71" fill-rule="evenodd"/><path d="m277.58 5.8034c-1.064 1.2584-2.765 2.251-4.467 2.1092-.212-1.7016.621-3.5095 1.595-4.6261 1.064-1.2939 2.925-2.2156 4.432-2.2865.177 1.7725-.514 3.5095-1.56 4.8034zm1.542 2.446c-2.464-.1418-4.573 1.4002-5.743 1.4002-1.187 0-2.978-1.3293-4.927-1.2939-2.535.0355-4.892 1.4712-6.186 3.7576-2.659 4.573-.691 11.3438 1.879 15.0659 1.258 1.8434 2.765 3.864 4.75 3.7931 1.879-.0709 2.623-1.223 4.892-1.223 2.286 0 2.942 1.223 4.927 1.1876 2.056-.0355 3.35-1.8434 4.609-3.6868 1.435-2.0915 2.02-4.1298 2.056-4.2361-.036-.0355-3.971-1.5421-4.006-6.0796-.036-3.793 3.102-5.601 3.244-5.7073-1.773-2.6232-4.538-2.9068-5.495-2.9777zm14.233-5.1402v27.6327h4.289v-9.4472h5.938c5.424 0 9.234-3.7222 9.234-9.1105s-3.74-9.075-9.092-9.075zm4.289 3.6158h4.945c3.722 0 5.849 1.9852 5.849 5.477 0 3.4917-2.127 5.4946-5.866 5.4946h-4.928zm23.007 24.2296c2.694 0 5.193-1.3648 6.327-3.5272h.089v3.3145h3.97v-13.7543c0-3.988-3.19-6.5581-8.1-6.5581-4.555 0-7.923 2.6055-8.047 6.1859h3.864c.319-1.7016 1.897-2.8182 4.059-2.8182 2.623 0 4.094 1.223 4.094 3.474v1.5243l-5.352.319c-4.981.3014-7.675 2.3397-7.675 5.8846 0 3.5804 2.783 5.9555 6.771 5.9555zm1.152-3.2791c-2.287 0-3.74-1.0989-3.74-2.7827 0-1.737 1.4-2.7473 4.077-2.9069l4.767-.3013v1.5598c0 2.5878-2.197 4.4311-5.104 4.4311zm14.534 10.5816c4.183 0 6.15-1.5952 7.87-6.434l7.533-21.1277h-4.36l-5.052 16.3243h-.089l-5.051-16.3243h-4.485l7.267 20.1174-.389 1.223c-.656 2.0738-1.72 2.8714-3.616 2.8714-.337 0-.993-.0355-1.259-.0709v3.3145c.248.0709 1.312.1063 1.631.1063z" fill="#000"/></svg>