<svg width="30" height="30" viewBox="0 0 30 30" fill="none" xmlns="http://www.w3.org/2000/svg">
<rect width="30" height="30" fill="white"/>
<path d="M19.0004 9.8C19.0004 11.9501 17.0919 13.8 14.6004 13.8C12.1088 13.8 10.2004 11.9501 10.2004 9.8C10.2004 7.64995 12.1088 5.8 14.6004 5.8C17.0919 5.8 19.0004 7.64995 19.0004 9.8Z" stroke="#007BFF" stroke-width="1.6"/>
<path d="M24.2 22.7314C24.2 23.4562 23.9686 23.8922 23.6097 24.2018C23.2132 24.5439 22.5808 24.7994 21.668 24.9629C20.2058 25.2249 18.3284 25.2089 16.2052 25.1908C15.6449 25.186 15.0675 25.1811 14.476 25.1811C13.8829 25.1811 13.32 25.1862 12.7816 25.1912C12.0378 25.198 11.3408 25.2044 10.6753 25.1962C9.53814 25.1821 8.58983 25.1245 7.8292 24.967C7.06627 24.809 6.58074 24.5676 6.28281 24.2553C6.00315 23.9622 5.8 23.5127 5.8 22.7314C5.8 21.2197 6.71005 19.7564 8.37566 18.6352C10.0364 17.5173 12.3761 16.8 15 16.8C17.6239 16.8 19.9636 17.5173 21.6243 18.6352C23.2899 19.7564 24.2 21.2197 24.2 22.7314Z" stroke="#007BFF" stroke-width="1.6"/>
</svg>
