<svg width="30" height="30" viewBox="0 0 30 30" fill="none" xmlns="http://www.w3.org/2000/svg">
<rect width="30" height="30" fill="white"/>
<path d="M25.6277 27.0468L25.6277 27.0469L25.6323 27.0424C25.9226 26.7602 25.9226 26.3007 25.6323 26.0185L18.8728 19.4464C20.127 17.9974 20.8883 16.131 20.8883 14.0885C20.8883 9.48434 17.0373 5.75 12.3192 5.75C7.60107 5.75 3.75 9.48434 3.75 14.0885C3.75 18.6927 7.60107 22.4271 12.3192 22.4271C14.4195 22.4271 16.3353 21.6808 17.8256 20.4611L24.5945 27.0424C24.7429 27.1866 24.9289 27.25 25.1134 27.25C25.3037 27.25 25.4853 27.1783 25.6277 27.0468ZM12.3192 20.9833C8.39777 20.9833 5.22073 17.8843 5.22073 14.0885C5.22073 10.2927 8.39777 7.19382 12.3192 7.19382C16.2406 7.19382 19.4176 10.2927 19.4176 14.0885C19.4176 17.8843 16.2406 20.9833 12.3192 20.9833Z" fill="#007BFF" stroke="#007BFF" stroke-width="0.5"/>
</svg>
