<svg width="512" height="512" viewBox="0 0 512 512" fill="none" xmlns="http://www.w3.org/2000/svg">
<path d="M490.484 180.707C490.488 132.621 471.641 87.293 437.418 53.0703C403.195 18.8477 357.867 0 309.777 0H202.707C202.703 0 202.703 0 202.703 0C154.621 0 109.289 18.8477 75.0703 53.0664C40.8477 87.293 22 132.621 22 180.707V264.871C22 302.113 33.3594 337.934 54.8516 368.469C73.8125 395.406 99.3125 416.449 129.043 429.789V478.133C129.043 503.129 143.039 512 155.023 512C163.586 512 172.148 507.773 180.484 499.441L234.344 445.582L309.781 445.578C357.867 445.578 403.195 426.73 437.418 392.512C471.641 358.289 490.488 312.957 490.488 264.871L490.484 180.707ZM309.781 415.578L228.133 415.582C224.152 415.582 220.34 417.16 217.527 419.973L159.273 478.227C159.199 478.305 159.121 478.379 159.043 478.453C159.043 478.348 159.043 478.238 159.043 478.133V419.777C159.043 413.555 155.203 407.98 149.391 405.762C91.1406 383.535 52.0039 326.914 52.0039 264.871V180.707C52.0039 140.633 67.7305 102.836 96.2852 74.2773C124.84 45.7266 162.633 30 202.707 30H309.777C349.852 30 387.648 45.7266 416.203 74.2812C444.762 102.84 460.488 140.637 460.484 180.707L460.488 264.871C460.484 347.973 392.879 415.578 309.781 415.578Z" fill="#007BFF"/>
<path d="M296.133 245.336C290.277 239.477 280.781 239.477 274.922 245.336L262.805 257.449L215.852 210.5L227.969 198.387C230.781 195.574 232.363 191.758 232.363 187.777C232.363 183.801 230.781 179.984 227.969 177.172L171.164 120.367C168.352 117.555 164.539 115.973 160.559 115.973C156.582 115.973 152.766 117.555 149.953 120.367L110.188 160.133C88.6836 181.637 88.6836 216.633 110.191 238.148L235.156 363.121C245.547 373.508 259.402 379.227 274.164 379.227C288.93 379.227 302.785 373.508 313.176 363.121L352.941 323.359C355.754 320.543 357.336 316.73 357.336 312.75C357.336 308.773 355.754 304.957 352.941 302.145L296.133 245.336ZM291.961 341.902C287.238 346.625 280.918 349.227 274.164 349.227C267.41 349.227 261.09 346.625 256.367 341.902L131.406 216.934C121.594 207.121 121.59 191.152 131.402 181.344L160.559 152.184L196.148 187.777L184.031 199.891C181.219 202.703 179.637 206.52 179.637 210.496C179.637 214.477 181.219 218.289 184.031 221.105L252.195 289.27C258.055 295.125 267.551 295.129 273.41 289.27L285.527 277.156L321.117 312.746L291.961 341.902Z" fill="#007BFF"/>
<path d="M259.883 66.3555C251.598 66.3555 244.883 73.0703 244.883 81.3555C244.883 89.6367 251.598 96.3555 259.883 96.3555C294.211 96.3555 326.488 109.723 350.762 134C375.039 158.273 388.406 190.547 388.406 224.879C388.406 233.16 395.121 239.879 403.406 239.879C411.688 239.879 418.406 233.164 418.406 224.879C418.406 182.535 401.918 142.727 371.977 112.785C342.035 82.8438 302.227 66.3555 259.883 66.3555Z" fill="#007BFF"/>
<path d="M324.141 224.875C324.141 233.156 330.859 239.875 339.141 239.875C347.426 239.875 354.141 233.156 354.141 224.875C354.141 172.902 311.855 130.621 259.883 130.621C251.598 130.621 244.883 137.336 244.883 145.621C244.883 153.906 251.598 160.621 259.883 160.621C295.316 160.621 324.141 189.445 324.141 224.875Z" fill="#007BFF"/>
</svg>
