<svg width="512" height="300" viewBox="0 0 512 300" fill="none" xmlns="http://www.w3.org/2000/svg">
<path d="M424.853 171.931C416.576 161.477 418.944 156.827 424.853 147.483C424.96 147.376 493.291 52.9545 500.331 20.9332L500.373 20.9118C503.872 9.2425 500.373 0.666504 483.456 0.666504H427.477C413.227 0.666504 406.656 8.0265 403.136 16.2612C403.136 16.2612 374.635 84.4852 334.315 128.709C321.301 141.488 315.285 145.584 308.181 145.584C304.683 145.584 299.243 141.488 299.243 129.819V20.9118C299.243 6.91717 295.253 0.666504 283.456 0.666504H195.435C186.496 0.666504 181.184 7.19451 181.184 13.2745C181.184 26.5438 201.344 29.5945 203.435 66.9278V147.931C203.435 165.68 200.213 168.944 193.067 168.944C174.037 168.944 127.851 100.443 100.48 22.0425C94.9547 6.83183 89.5573 0.687836 75.2 0.687836H19.2C3.22133 0.687836 0 8.04783 0 16.2825C0 30.8318 19.0293 103.173 88.4907 198.747C134.784 263.984 199.979 299.333 259.285 299.333C294.933 299.333 299.285 291.483 299.285 277.979C299.285 215.643 296.064 209.755 313.92 209.755C322.197 209.755 336.448 213.851 369.728 245.317C407.765 282.629 414.016 299.333 435.307 299.333H491.285C507.243 299.333 515.328 291.483 510.677 275.995C500.032 243.419 428.096 176.411 424.853 171.931V171.931Z" fill="#007BFF"/>
</svg>
