<svg width="30" height="30" viewBox="0 0 30 30" fill="none" xmlns="http://www.w3.org/2000/svg">
<rect width="30" height="30" fill="white"/>
<path d="M14.7968 23.8704L14.7841 23.8574L14.7696 23.8464C14.7283 23.815 12.4296 22.0534 10.1437 19.63C9.00056 18.4182 7.86652 17.047 7.0196 15.6491C6.17036 14.2474 5.62436 12.8425 5.62436 11.5577C5.62436 9.04382 7.66947 6.9987 10.1833 6.9987C12.0017 6.9987 13.6416 8.07234 14.3616 9.73267C14.4806 10.0073 14.755 10.1226 14.9919 10.1226C15.2287 10.1226 15.5031 10.0073 15.6221 9.73277C16.3429 8.07234 17.9829 6.9987 19.8013 6.9987C22.3151 6.9987 24.3603 9.04382 24.3603 11.5577C24.3603 12.8418 23.8143 14.2463 22.9641 15.6488C22.1162 17.0474 20.9803 18.4205 19.8334 19.6359C17.6858 21.912 15.5225 23.6123 15.1894 23.874C15.1668 23.8918 15.1526 23.903 15.1475 23.9072L15.1335 23.9187L15.1213 23.9321C15.0769 23.9809 15.0374 23.9946 15.0071 23.9946C14.9767 23.9946 14.9048 23.9808 14.7968 23.8704ZM8.9573 20.3885C11.2444 22.8531 13.5698 24.6544 13.8616 24.8728C14.152 25.1836 14.5625 25.3602 14.9923 25.3602C15.4095 25.3602 15.8241 25.1922 16.0658 24.9251C16.3716 24.6917 18.7183 22.8743 21.0197 20.3954C22.2011 19.1229 23.3761 17.6702 24.2571 16.1627C25.1365 14.6579 25.7346 13.0785 25.7346 11.5577C25.7346 8.2859 23.0731 5.62434 19.8013 5.62434C17.8692 5.62434 16.0905 6.55737 14.9923 8.07771C13.8941 6.55737 12.1154 5.62434 10.1833 5.62434C6.91156 5.62434 4.25 8.2859 4.25 11.5577C4.25 13.0784 4.84814 14.6579 5.72653 16.1618C6.60654 17.6684 7.7797 19.1194 8.9573 20.3885Z" fill="#007BFF" stroke="#007BFF" stroke-width="0.5"/>
</svg>
